<?xml version="1.0" standalone="no"?>
<!DOCTYPE svg PUBLIC "-//W3C//DTD SVG 20010904//EN"
 "http://www.w3.org/TR/2001/REC-SVG-20010904/DTD/svg10.dtd">
<svg version="1.0" xmlns="http://www.w3.org/2000/svg"
 width="700.000000pt" height="700.000000pt" viewBox="0 0 700.000000 700.000000"
 preserveAspectRatio="xMidYMid meet">
<metadata>
Created by potrace 1.11, written by Peter Selinger 2001-2013
</metadata>
<g transform="translate(0.000000,700.000000) scale(0.100000,-0.100000)"
fill="#000000" stroke="none">
<path d="M3220 6964 c-1067 -94 -1989 -619 -2597 -1480 -208 -294 -386 -665
-486 -1014 -197 -679 -179 -1405 48 -2070 176 -511 445 -942 835 -1330 656
-655 1539 -1020 2470 -1020 1242 0 2391 656 3019 1724 233 395 382 835 447
1321 25 182 25 646 1 829 -90 669 -332 1236 -751 1761 -104 131 -383 409 -516
514 -519 412 -1090 655 -1755 746 -115 16 -602 29 -715 19z m157 -294 c17 -10
37 -28 43 -39 9 -18 8 -21 -12 -21 -12 0 -32 9 -44 21 -52 49 -163 29 -189
-35 -19 -45 -19 -70 0 -106 42 -81 184 -73 211 12 3 11 15 18 30 18 22 0 24
-3 19 -22 -36 -119 -257 -134 -310 -22 -22 46 -16 125 11 156 50 56 178 77
241 38z m319 12 c9 -5 124 -264 124 -278 0 -2 -11 -4 -25 -4 -21 0 -29 9 -45
44 l-19 44 -71 4 -72 3 -22 -37 c-16 -29 -27 -38 -48 -38 -26 0 -26 0 39 113
35 61 71 122 79 135 14 22 39 28 60 14z m302 -49 c10 -16 43 -72 73 -125 29
-54 56 -94 60 -90 3 4 13 49 22 101 9 52 19 96 21 98 2 3 14 2 26 -2 13 -4 19
-13 16 -23 -3 -9 -14 -70 -26 -134 -19 -101 -25 -118 -41 -118 -28 0 -48 25
-114 143 -33 59 -63 107 -66 107 -3 0 -14 -46 -25 -102 -17 -93 -21 -103 -39
-100 -11 2 -21 5 -23 7 -3 3 35 214 44 248 8 27 50 21 72 -10z m-998 12 c0 -3
9 -62 20 -132 11 -69 19 -127 18 -128 -10 -9 -48 -15 -48 -8 0 4 -9 60 -20
123 -26 148 -26 150 5 150 14 0 25 -2 25 -5z m-176 -67 c20 -28 20 -58 2 -83
-12 -17 -11 -20 7 -30 11 -5 25 -23 30 -40 5 -16 16 -37 24 -46 12 -14 12 -17
-2 -23 -37 -14 -52 -6 -64 34 -16 55 -33 60 -116 41 -77 -18 -75 -15 -60 -97
6 -37 5 -42 -15 -47 -12 -3 -23 0 -25 6 -16 45 -63 252 -59 257 14 13 164 48
211 49 43 1 55 -3 67 -21z m-397 -85 c2 -5 -38 -27 -89 -48 -51 -21 -97 -42
-101 -45 -5 -4 -2 -24 7 -43 l15 -36 95 38 c77 32 96 36 100 25 4 -10 -8 -21
-40 -34 -25 -11 -47 -20 -49 -20 -2 0 -24 -9 -49 -19 l-45 -20 16 -40 c9 -23
21 -41 27 -40 6 0 54 17 106 39 76 30 96 35 98 23 5 -18 17 -12 -124 -70
l-122 -50 -45 116 c-26 64 -47 123 -49 130 -2 10 33 30 112 63 115 47 131 51
137 31z m2453 -119 c0 -2 -11 -26 -24 -52 l-24 -48 84 -42 c46 -23 86 -42 87
-42 2 0 14 22 27 49 21 46 24 49 47 38 13 -6 22 -13 21 -16 -2 -3 -30 -59 -63
-123 -33 -65 -62 -118 -65 -118 -4 0 -14 6 -24 13 -17 12 -16 16 10 70 15 31
26 58 23 60 -11 9 -149 77 -156 77 -4 0 -21 -25 -36 -54 -27 -51 -30 -54 -52
-44 -28 12 -32 -1 57 165 44 83 52 92 69 83 10 -6 19 -13 19 -16z m-2754 -147
c31 -54 53 -105 50 -113 -12 -32 -37 -9 -87 81 -29 52 -53 94 -55 92 -1 -1 2
-38 6 -82 15 -134 13 -163 -10 -175 -21 -11 -54 8 -189 109 l-34 26 16 -30 c8
-17 33 -61 56 -99 37 -64 39 -70 23 -82 -9 -7 -20 -10 -24 -8 -3 2 -28 41 -53
87 -26 45 -56 97 -67 114 l-19 32 32 20 32 20 44 -32 c24 -18 71 -52 105 -76
l61 -44 -6 59 c-21 202 -21 197 10 216 34 21 30 25 109 -115z m1744 -42 c430
-67 793 -205 1130 -430 170 -113 273 -197 416 -340 798 -793 1018 -1979 557
-3008 -125 -280 -322 -564 -551 -795 -413 -414 -948 -682 -1545 -773 -203 -32
-570 -32 -772 -1 -413 64 -785 205 -1114 422 -164 109 -274 198 -420 343 -227
224 -385 445 -526 732 -178 362 -259 692 -272 1095 -11 375 46 712 178 1050
378 969 1265 1628 2319 1724 103 9 499 -3 600 -19z m1460 -70 c11 -13 10 -39
-5 -143 -26 -178 -25 -176 -52 -157 -12 9 -20 21 -18 28 20 67 17 75 -47 118
l-62 42 -38 -22 c-31 -17 -42 -20 -59 -10 -13 6 -17 15 -12 20 17 17 248 139
264 139 9 0 22 -7 29 -15z m-3520 -222 c-21 -15 -26 -14 -64 4 l-41 20 -58
-44 c-60 -46 -59 -45 -41 -114 2 -9 -5 -24 -16 -34 -24 -22 -21 -30 -54 149
l-25 138 22 18 c21 17 24 16 161 -52 135 -68 138 -70 116 -85z m3796 7 c106
-97 123 -124 99 -171 -15 -28 -28 -34 -68 -31 -13 1 -16 -3 -12 -21 4 -16 -3
-34 -24 -61 -17 -21 -31 -44 -31 -50 0 -6 -10 -1 -22 11 l-21 22 27 40 c35 50
30 67 -37 126 l-51 45 -43 -42 c-40 -39 -44 -41 -60 -26 -15 16 -12 22 53 93
38 42 77 88 87 101 10 13 23 24 28 24 5 0 38 -27 75 -60z m354 -372 c42 -79
12 -157 -73 -192 -47 -20 -47 -20 -93 0 -34 14 -63 38 -106 91 l-60 72 34 29
c18 16 65 57 103 90 l70 62 53 -58 c29 -31 62 -74 72 -94z m-4857 -109 c96
-71 107 -82 95 -97 -7 -9 -13 -18 -14 -20 -1 -2 -24 13 -52 32 -27 20 -52 36
-55 36 -3 0 -28 -31 -56 -69 -48 -65 -61 -91 -43 -91 4 0 24 -15 45 -33 28
-23 36 -37 32 -49 -4 -10 -12 -18 -17 -18 -10 0 -218 150 -218 157 0 2 5 13
11 24 10 19 12 18 58 -15 l48 -35 56 77 56 77 -24 18 c-68 51 -70 54 -56 71 7
9 16 16 20 16 3 0 55 -37 114 -81z m5037 -133 c68 -45 111 -165 75 -212 -12
-16 -16 -17 -24 -4 -6 8 -7 33 -4 56 12 93 -83 172 -160 133 -71 -37 -90 -87
-57 -154 24 -51 46 -66 93 -67 64 -1 83 -48 20 -48 -71 0 -141 65 -164 150
-11 40 -10 51 8 91 16 35 31 51 64 68 53 26 95 23 149 -13z m-5350 -113 c0 -3
-13 -29 -30 -57 l-29 -52 104 -58 c58 -31 105 -61 105 -65 0 -4 -6 -15 -12
-24 -12 -14 -24 -10 -118 43 l-104 59 -28 -47 c-15 -26 -29 -51 -32 -57 -2 -6
-8 -6 -16 2 -18 16 123 275 145 266 8 -3 15 -7 15 -10z m5507 -213 c24 0 87
-66 109 -115 43 -91 25 -174 -45 -213 -45 -25 -78 -28 -124 -8 -77 32 -141
159 -118 235 19 63 93 117 146 106 11 -3 25 -5 32 -5z m-5632 -155 c14 -13 25
-32 25 -41 0 -13 3 -14 15 -4 9 8 27 10 47 5 18 -3 45 -7 60 -8 23 -2 27 -6
22 -22 -11 -35 -21 -38 -69 -25 -42 12 -48 11 -64 -6 -18 -19 -67 -132 -60
-138 2 -2 25 -13 52 -24 49 -22 53 -27 38 -51 -8 -12 -30 -6 -128 34 -65 26
-121 51 -126 55 -8 6 28 102 69 183 35 68 78 84 119 42z m5855 -250 c0 -8 0
-18 -1 -22 0 -5 -39 -20 -85 -34 -47 -15 -94 -35 -105 -45 -43 -39 -5 -155 53
-162 14 -2 65 9 113 24 47 14 87 25 89 23 2 -2 6 -13 10 -25 6 -18 -3 -23 -83
-47 -50 -15 -99 -27 -111 -27 -66 0 -124 82 -125 177 0 68 18 86 121 123 90
33 124 37 124 15z m-5919 -138 c62 -41 82 -113 58 -202 -40 -145 -195 -181
-270 -63 -44 71 -3 233 69 272 41 23 103 20 143 -7z m6043 -342 c21 -121 21
-160 -4 -185 -24 -24 -67 -26 -91 -4 -16 14 -18 14 -29 -5 -7 -14 -25 -23 -51
-27 -21 -4 -42 -11 -45 -15 -11 -19 -24 -8 -24 21 0 24 5 31 28 36 73 15 75
18 68 94 -9 100 -10 102 -65 94 -25 -3 -50 -7 -56 -8 -5 0 -10 10 -10 24 0 24
4 26 130 46 72 11 131 20 132 20 1 -1 9 -42 17 -91z m-6150 -85 c55 -6 101
-12 103 -14 2 -2 1 -16 -3 -31 -5 -21 -35 -45 -126 -105 l-120 -77 48 -6 c27
-4 77 -9 112 -13 58 -6 62 -8 62 -31 0 -25 -2 -25 -52 -19 -29 3 -82 8 -118
11 -106 10 -112 12 -108 43 2 22 24 41 123 107 l120 79 -40 7 c-22 4 -70 10
-107 14 -64 6 -68 8 -68 32 0 23 3 24 38 19 20 -3 82 -10 136 -16z m6198 -346
c3 -82 5 -151 3 -153 -2 -2 -11 -1 -20 2 -11 5 -15 21 -15 66 l0 60 -125 -6
-125 -6 0 26 c0 26 3 27 48 27 27 0 84 3 126 7 l78 6 -7 53 c-7 56 -1 78 18
71 8 -2 14 -54 19 -153z"/>
<path d="M3635 6580 c-14 -27 -25 -52 -25 -55 0 -3 25 -5 56 -5 31 0 54 3 52
8 -1 4 -11 28 -22 55 -10 26 -23 47 -27 47 -5 0 -20 -22 -34 -50z"/>
<path d="M2663 6552 c-67 -17 -68 -18 -53 -74 l11 -37 72 20 c82 23 97 33 97
63 0 48 -25 54 -127 28z"/>
<path d="M3305 6140 c-643 -47 -1241 -319 -1694 -770 -609 -606 -882 -1453
-740 -2298 156 -937 847 -1744 1754 -2051 304 -102 540 -141 865 -141 255 0
442 23 665 81 923 238 1650 952 1900 1864 168 615 105 1263 -180 1840 -318
645 -870 1124 -1555 1349 -312 102 -693 150 -1015 126z m216 -432 l34 -113
125 -3 124 -3 -97 -70 c-53 -39 -97 -74 -97 -77 0 -4 16 -56 35 -117 19 -60
33 -110 32 -111 -1 -2 -45 29 -97 66 -52 38 -97 70 -100 70 -3 0 -48 -31 -100
-69 -52 -38 -97 -68 -99 -66 -1 2 14 54 34 115 22 66 34 115 28 121 -5 5 -49
38 -98 73 l-89 65 123 3 123 3 36 113 c20 61 39 112 42 112 4 0 22 -51 41
-112z m-1177 -408 l78 -5 -61 -44 c-33 -25 -61 -45 -61 -45 0 -1 9 -30 20 -65
11 -36 17 -67 15 -69 -2 -3 -23 10 -47 29 -24 18 -48 36 -54 41 -6 5 -34 -8
-67 -32 -30 -22 -58 -40 -60 -40 -3 0 5 30 16 67 l20 67 -33 25 c-19 14 -45
36 -59 48 l-26 22 76 1 76 0 12 42 c30 100 31 100 55 28 l23 -65 77 -5z m2441
60 l18 -60 74 0 c40 0 73 -3 73 -7 -1 -5 -25 -25 -55 -46 -30 -21 -55 -41 -55
-46 0 -4 9 -34 20 -66 11 -32 18 -60 16 -63 -3 -2 -30 14 -61 37 l-57 40 -55
-40 c-30 -23 -56 -39 -59 -37 -2 3 5 31 16 63 11 32 20 61 20 65 0 4 -28 26
-61 51 l-61 44 78 5 78 5 20 62 c11 34 22 60 26 58 4 -2 15 -31 25 -65z
m-2860 -1373 l310 -418 3 420 2 421 155 0 155 0 0 -610 0 -610 -165 0 -166 0
-322 431 -322 431 -3 -431 -2 -431 -155 0 -155 0 0 610 0 610 177 -2 177 -3
311 -418z m2046 -186 c154 -333 279 -606 279 -608 0 -2 -80 -3 -179 -3 l-178
0 -53 125 -52 125 -292 0 -292 0 -54 -125 -53 -125 -173 0 -173 0 12 28 c7 16
134 290 282 610 l270 582 189 -3 189 -2 278 -604z m811 377 l3 -233 308 -3
307 -2 0 235 0 235 165 0 165 0 0 -610 0 -610 -165 0 -165 0 0 270 0 270 -310
0 -310 0 0 -270 0 -270 -165 0 -165 0 0 610 0 610 165 0 165 0 2 -232z m-2942
-1398 l0 -30 -135 0 -135 0 0 30 0 30 135 0 135 0 0 -30z m-8 -187 l3 -118
1788 -3 1787 -2 0 -30 0 -30 -1790 0 -1790 0 0 -100 0 -100 -125 0 -125 0 0
250 0 250 125 0 124 0 3 -117z m-2 -458 l0 -35 -125 0 -125 0 0 35 0 35 125 0
125 0 0 -35z m1768 -242 c45 -34 65 -69 70 -125 3 -44 0 -59 -20 -88 -73 -107
-203 -108 -275 -1 -51 75 -15 187 72 227 40 19 119 12 153 -13z"/>
<path d="M3396 3889 c-54 -126 -96 -232 -94 -235 3 -2 93 -3 200 -2 l196 3
-97 232 c-53 128 -98 233 -101 233 -3 0 -49 -104 -104 -231z"/>
<path d="M5233 6053 c-24 -13 -43 -29 -43 -34 0 -10 78 -64 84 -58 9 9 18 119
10 118 -5 -1 -28 -12 -51 -26z"/>
<path d="M1563 5968 c3 -13 9 -40 12 -60 4 -21 10 -38 14 -38 4 0 25 15 47 34
l39 33 -52 27 c-64 32 -67 32 -60 4z"/>
<path d="M5515 5870 l-29 -30 35 -36 c47 -49 95 -77 118 -69 25 8 35 38 22 63
-10 18 -103 102 -113 102 -2 0 -17 -14 -33 -30z"/>
<path d="M5768 5554 c-43 -36 -78 -70 -78 -74 0 -4 22 -31 48 -59 60 -64 101
-69 156 -21 59 52 54 103 -16 182 l-33 38 -77 -66z"/>
<path d="M6215 4902 c-36 -22 -50 -39 -59 -69 -10 -31 10 -97 40 -132 65 -78
194 -31 194 71 0 103 -100 177 -175 130z"/>
<path d="M596 4768 c-16 -9 -76 -124 -76 -146 0 -8 81 -45 85 -39 16 24 56
139 53 152 -5 28 -39 46 -62 33z"/>
<path d="M451 4363 c-34 -34 -55 -99 -45 -140 10 -41 52 -82 92 -89 73 -14
135 53 135 144 0 59 -41 102 -106 109 -41 5 -49 2 -76 -24z"/>
<path d="M6542 4102 c-26 -8 -26 -7 -17 -82 8 -68 27 -100 60 -100 39 0 48 30
34 116 -13 79 -16 83 -77 66z"/>
</g>
</svg>
